<mxfile host="app.diagrams.net" modified="2024-01-04T12:30:00.000Z">
  <diagram name="RAG流程图" id="gpfjG_q4in2JqVZKO5KH">
    <mxGraphModel dx="1200" dy="580" grid="1" gridSize="10">
      <root>
        <!-- 基础节点 -->
        <mxCell id="0" />
        <mxCell id="1" parent="0" />

        <!-- 流程节点 -->
        <mxCell id="2" value="用户输入" style="rounded=1;whiteSpace=wrap;html=1;fillColor=#BBDEFB;strokeColor=#1976D2;" parent="1" vertex="1">
          <mxGeometry x="500" y="20" width="120" height="60" as="geometry" />
        </mxCell>
        
        <!-- 中间流程节点样式 -->
        <mxCell id="3" value="预处理" style="rounded=1;whiteSpace=wrap;html=1;fillColor=#E3F2FD;strokeColor=#2196F3;gradientColor=#42A5F5;" parent="1" vertex="1">
          <mxGeometry x="500" y="120" width="120" height="60" as="geometry" />
        </mxCell>

        <!-- 添加更多节点，修改以下数值即可 -->
        <mxCell id="4" value="嵌入" style="rounded=1;whiteSpace=wrap;html=1;fillColor=#E3F2FD;strokeColor=#2196F3;gradientColor=#42A5F5;" parent="1" vertex="1">
          <mxGeometry x="500" y="220" width="120" height="60" as="geometry" />
        </mxCell>

        <!-- 连接线 -->
        <mxCell id="conn1" style="edgeStyle=orthogonalEdgeStyle;rounded=0;html=1;endArrow=classic;endFill=1;" parent="1" source="2" target="3" edge="1">
          <mxGeometry relative="1" as="geometry" />
        </mxCell>

        <!-- 更多连接线... -->
      </root>
    </mxGraphModel>
  </diagram>
</mxfile>
